<svg version="1.1" viewBox="405 120 280 305" fill="none" stroke="none" stroke-linecap="square" stroke-miterlimit="10" xmlns:xlink="http://www.w3.org/1999/xlink" xmlns="http://www.w3.org/2000/svg">
  <g filter="url(#shadowFilter-p.1)">
    <use xlink:href="#p.1" transform="matrix(1.0 0.0 0.0 1.0 0.0 2.0)"/>
  </g>
  <defs>
    <filter id="shadowFilter-p.1" filterUnits="userSpaceOnUse">
      <feGaussianBlur in="SourceAlpha" stdDeviation="2.0" result="blur"/>
      <feComponentTransfer in="blur" color-interpolation-filters="sRGB">
        <feFuncR type="linear" slope="0" intercept="0.0"/>
        <feFuncG type="linear" slope="0" intercept="0.0"/>
        <feFuncB type="linear" slope="0" intercept="0.0"/>
        <feFuncA type="linear" slope="0.5" intercept="0"/>
      </feComponentTransfer>
    </filter>
  </defs>
  <g id="p.1">
    <path fill="#4285f4" d="m421.3483 146.72931l0 0c9.019226 -15.629211 28.99936 -20.985367 44.626923 -11.963287l188.63593 108.90297c7.5046387 4.33255 12.981323 11.469177 15.225281 19.83989c2.2439575 8.370697 1.0714111 17.289825 -3.2597656 24.795227l0 0l0 0c-9.019226 15.629242 -28.999329 20.985382 -44.626892 11.963318l-188.63596 -108.902985c-15.627563 -9.022079 -20.98471 -29.005905 -11.965515 -44.63513z" fill-rule="evenodd"/>
  </g>
  <path fill="#4285f4" d="m441.50195 130.80019l0 0c18.047089 0.00869751 32.677155 14.645828 32.677155 32.692917l0 217.82678c0 8.666504 -3.442749 16.97641 -9.570923 23.101624c-6.1281433 6.1252136 -14.439728 9.563965 -23.106232 9.559784l0 0l0 0c-18.04712 -0.00869751 -32.677185 -14.645813 -32.677185 -32.6929l0 -217.82678c0 -18.047104 14.630066 -32.67012 32.677185 -32.661423z" fill-rule="evenodd"/>
  <path fill="#4285f4" d="m666.4051 264.07507l0 0c9.03656 15.620514 3.6931152 35.59848 -11.934937 44.62201l-188.60257 108.897705c-7.504883 4.333252 -16.426239 5.509186 -24.801483 3.2690735c-8.375244 -2.2401123 -15.518341 -7.712738 -19.85788 -15.213989l0 0l0 0c-9.036591 -15.620514 -3.6931458 -35.59848 11.934937 -44.62201l188.60257 -108.897705c15.628113 -9.023529 35.62274 -3.6756134 44.659363 11.944916z" fill-rule="evenodd"/>
  <path fill="#00ff00" d="m586.56433 158.28084l0 0c0 -15.185654 13.255188 -27.496063 29.606262 -27.496063l0 0c16.351135 0 29.606323 12.31041 29.606323 27.496063l0 0c0 15.185654 -13.255188 27.496063 -29.606323 27.496063l0 0c-16.351074 0 -29.606262 -12.31041 -29.606262 -27.496063z" fill-rule="evenodd"/>
</svg>